ffmpeg version 4.2.7-0ubuntu0.1 Copyright (c) 2000-2022 the FFmpeg developers
  built with gcc 9 (Ubuntu 9.4.0-1ubuntu1~20.04.1)
  configuration: --prefix=/usr --extra-version=0ubuntu0.1 --toolchain=hardened --libdir=/usr/lib/x86_64-linux-gnu --incdir=/usr/include/x86_64-linux-gnu --arch=amd64 --enable-gpl --disable-stripping --enable-avresample --disable-filter=resample --enable-avisynth --enable-gnutls --enable-ladspa --enable-libaom --enable-libass --enable-libbluray --enable-libbs2b --enable-libcaca --enable-libcdio --enable-libcodec2 --enable-libflite --enable-libfontconfig --enable-libfreetype --enable-libfribidi --enable-libgme --enable-libgsm --enable-libjack --enable-libmp3lame --enable-libmysofa --enable-libopenjpeg --enable-libopenmpt --enable-libopus --enable-libpulse --enable-librsvg --enable-librubberband --enable-libshine --enable-libsnappy --enable-libsoxr --enable-libspeex --enable-libssh --enable-libtheora --enable-libtwolame --enable-libvidstab --enable-libvorbis --enable-libvpx --enable-libwavpack --enable-libwebp --enable-libx265 --enable-libxml2 --enable-libxvid --enable-libzmq --enable-libzvbi --enable-lv2 --enable-omx --enable-openal --enable-opencl --enable-opengl --enable-sdl2 --enable-libdc1394 --enable-libdrm --enable-libiec61883 --enable-nvenc --enable-chromaprint --enable-frei0r --enable-libx264 --enable-shared
  libavutil      56. 31.100 / 56. 31.100
  libavcodec     58. 54.100 / 58. 54.100
  libavformat    58. 29.100 / 58. 29.100
  libavdevice    58.  8.100 / 58.  8.100
  libavfilter     7. 57.100 /  7. 57.100
  libavresample   4.  0.  0 /  4.  0.  0
  libswscale      5.  5.100 /  5.  5.100
  libswresample   3.  5.100 /  3.  5.100
  libpostproc    55.  5.100 / 55.  5.100
Routing option strict to both codec and muxer layer
[h264 @ 0x5623fb5a0d80] Reinit context to 1920x1088, pix_fmt: yuv420p
Input #0, mov,mp4,m4a,3gp,3g2,mj2, from '/var/www/html/project/media/video/original/InShot_20220811_065852684.mp4':
  Metadata:
    major_brand     : isom
    minor_version   : 512
    compatible_brands: isomiso2avc1mp41
    encoder         : Lavf58.76.100
  Duration: 00:00:30.62, start: 0.000000, bitrate: 11762 kb/s
    Stream #0:0(und): Video: h264 (Constrained Baseline), 1 reference frame (avc1 / 0x31637661), yuv420p(tv, bt709, left), 1920x1088, 11507 kb/s, 30.06 fps, 30 tbr, 1000k tbn, 2000k tbc (default)
    Metadata:
      handler_name    : VideoHandler
    Stream #0:1(und): Audio: aac (LC) (mp4a / 0x6134706D), 44100 Hz, stereo, fltp, 253 kb/s (default)
    Metadata:
      handler_name    : SoundHandler
Input #1, png_pipe, from '/var/www/html/project/static/images/templates/logo.png':
  Duration: N/A, bitrate: N/A
    Stream #1:0: Video: png, 1 reference frame, rgba(pc), 1920x1080 [SAR 2835:2835 DAR 16:9], 25 tbr, 25 tbn, 25 tbc
[Parsed_scale_0 @ 0x5623fb65d480] w:1920 h:1080 flags:'bilinear' interl:0
[Parsed_scale_2 @ 0x5623fb694000] w:1920 h:1080 flags:'bilinear' interl:0
Stream mapping:
  Stream #0:0 (h264) -> scale (graph 0)
  Stream #1:0 (png) -> scale (graph 0)
  overlay (graph 0) -> Stream #0:0 (libx264)
  Stream #0:1 -> #0:1 (aac (native) -> aac (native))
Press [q] to stop, [?] for help
[h264 @ 0x5623fb5f82c0] Reinit context to 1920x1088, pix_fmt: yuv420p
[graph_1_in_0_1 @ 0x5623fb98da00] tb:1/44100 samplefmt:fltp samplerate:44100 chlayout:0x3
[Parsed_scale_0 @ 0x5623fc63f680] w:1920 h:1080 flags:'bilinear' interl:0
[Parsed_scale_2 @ 0x5623fc642fc0] w:1920 h:1080 flags:'bilinear' interl:0
[graph 0 input from stream 0:0 @ 0x5623fc645480] w:1920 h:1088 pixfmt:yuv420p tb:1/1000000 fr:1000000/33333 sar:0/1 sws_param:flags=2
[graph 0 input from stream 1:0 @ 0x5623fc646480] w:1920 h:1080 pixfmt:rgba tb:1/25 fr:25/1 sar:2835/2835 sws_param:flags=2
[Parsed_scale_0 @ 0x5623fc63f680] w:1920 h:1088 fmt:yuv420p sar:0/1 -> w:1920 h:1080 fmt:yuv420p sar:0/1 flags:0x2
[Parsed_setsar_1 @ 0x5623fc642640] w:1920 h:1080 sar:0/1 dar:16/9 -> sar:1/1 dar:16/9
[Parsed_scale_2 @ 0x5623fc642fc0] w:1920 h:1080 fmt:rgba sar:2835/2835 -> w:1920 h:1080 fmt:yuva420p sar:1/1 flags:0x2
[Parsed_setsar_3 @ 0x5623fc643a40] w:1920 h:1080 sar:1/1 dar:16/9 -> sar:1/1 dar:16/9
[Parsed_overlay_4 @ 0x5623fc644640] main w:1920 h:1080 fmt:yuv420p overlay w:1920 h:1080 fmt:yuva420p
[Parsed_overlay_4 @ 0x5623fc644640] [framesync @ 0x5623fc6447a8] Selected 1/1000000 time base
[Parsed_overlay_4 @ 0x5623fc644640] [framesync @ 0x5623fc6447a8] Sync level 2
[libx264 @ 0x5623fb5e5b40] using SAR=1/1
[libx264 @ 0x5623fb5e5b40] using cpu capabilities: MMX2 SSE2Fast SSSE3 SSE4.2 AVX FMA3 BMI2 AVX2
[libx264 @ 0x5623fb5e5b40] profile High, level 4.0
[libx264 @ 0x5623fb5e5b40] 264 - core 155 r2917 0a84d98 - H.264/MPEG-4 AVC codec - Copyleft 2003-2018 - http://www.videolan.org/x264.html - options: cabac=1 ref=1 deblock=1:0:0 analyse=0x3:0x113 me=hex subme=2 psy=1 psy_rd=1.00:0.00 mixed_ref=0 me_range=16 chroma_me=1 trellis=0 8x8dct=1 cqm=0 deadzone=21,11 fast_pskip=1 chroma_qp_offset=0 threads=24 lookahead_threads=8 sliced_threads=0 nr=0 decimate=1 interlaced=0 bluray_compat=0 constrained_intra=0 bframes=3 b_pyramid=2 b_adapt=1 b_bias=0 direct=1 weightb=1 open_gop=0 weightp=1 keyint=250 keyint_min=25 scenecut=40 intra_refresh=0 rc_lookahead=10 rc=crf mbtree=1 crf=18.0 qcomp=0.60 qpmin=0 qpmax=69 qpstep=4 ip_ratio=1.40 aq=1:1.00
Output #0, mp4, to '/var/www/html/project/media/video/watermarks/InShot_20220811_065852684.mp4':
  Metadata:
    major_brand     : isom
    minor_version   : 512
    compatible_brands: isomiso2avc1mp41
    encoder         : Lavf58.29.100
    Stream #0:0: Video: h264 (libx264), 1 reference frame (avc1 / 0x31637661), yuv420p, 1920x1080 [SAR 1:1 DAR 16:9], q=-1--1, 30 fps, 1000k tbn, 30 tbc (default)
    Metadata:
      encoder         : Lavc58.54.100 libx264
    Side data:
      cpb: bitrate max/min/avg: 0/0/0 buffer size: 0 vbv_delay: -1
    Stream #0:1(und): Audio: aac (LC) (mp4a / 0x6134706D), 44100 Hz, stereo, fltp, delay 1024, 128 kb/s (default)
    Metadata:
      handler_name    : SoundHandler
      encoder         : Lavc58.54.100 aac
[Parsed_overlay_4 @ 0x5623fc644640] [framesync @ 0x5623fc6447a8] Sync level 0
No more output streams to write to, finishing.
frame=  919 fps= 89 q=-1.0 Lsize=   23466kB time=00:00:30.62 bitrate=6276.6kbits/s speed=2.95x    
[AVIOContext @ 0x5623fb59f0c0] Statistics: 0 seeks, 21 writeouts
video:22897kB audio:536kB subtitle:0kB other streams:0kB global headers:0kB muxing overhead: 0.141278%
Input file #0 (/var/www/html/project/media/video/original/InShot_20220811_065852684.mp4):
  Input stream #0:0 (video): 920 packets read (44021390 bytes); 919 frames decoded; 
  Input stream #0:1 (audio): 1320 packets read (971863 bytes); 1319 frames decoded (1350656 samples); 
  Total: 2240 packets (44993253 bytes) demuxed
Input file #1 (/var/www/html/project/static/images/templates/logo.png):
  Input stream #1:0 (video): 1 packets read (111578 bytes); 1 frames decoded; 
  Total: 1 packets (111578 bytes) demuxed
Output file #0 (/var/www/html/project/media/video/watermarks/InShot_20220811_065852684.mp4):
  Output stream #0:0 (video): 919 frames encoded; 919 packets muxed (23446383 bytes); 
  Output stream #0:1 (audio): 1319 frames encoded (1350656 samples); 1320 packets muxed (548882 bytes); 
  Total: 2239 packets (23995265 bytes) muxed
[AVIOContext @ 0x5623fb5b3b40] Statistics: 2 seeks, 95 writeouts
[libx264 @ 0x5623fb5e5b40] frame I:5     Avg QP:12.04  size: 74587
[libx264 @ 0x5623fb5e5b40] frame P:315   Avg QP:15.41  size: 38905
[libx264 @ 0x5623fb5e5b40] frame B:599   Avg QP:16.64  size: 18060
[libx264 @ 0x5623fb5e5b40] consecutive B-frames:  9.0%  6.7% 16.3% 67.9%
[libx264 @ 0x5623fb5e5b40] mb I  I16..4: 55.0% 20.8% 24.2%
[libx264 @ 0x5623fb5e5b40] mb P  I16..4: 33.9% 20.0%  4.7%  P16..4: 12.3%  7.0%  3.3%  0.0%  0.0%    skip:18.8%
[libx264 @ 0x5623fb5e5b40] mb B  I16..4:  5.9%  4.3%  0.4%  B16..8: 20.9%  7.7%  0.7%  direct:16.4%  skip:43.6%  L0:49.1% L1:42.7% BI: 8.2%
[libx264 @ 0x5623fb5e5b40] 8x8 transform intra:35.6% inter:31.7%
[libx264 @ 0x5623fb5e5b40] coded y,uvDC,uvAC intra: 30.8% 58.3% 22.0% inter: 8.8% 26.6% 0.9%
[libx264 @ 0x5623fb5e5b40] i16 v,h,dc,p: 67% 20%  9%  5%
[libx264 @ 0x5623fb5e5b40] i8 v,h,dc,ddl,ddr,vr,hd,vl,hu: 22% 33% 23%  3%  4%  3%  5%  3%  4%
[libx264 @ 0x5623fb5e5b40] i4 v,h,dc,ddl,ddr,vr,hd,vl,hu: 24% 28% 12%  5%  7%  6%  7%  5%  5%
[libx264 @ 0x5623fb5e5b40] i8c dc,h,v,p: 47% 26% 19%  8%
[libx264 @ 0x5623fb5e5b40] Weighted P-Frames: Y:0.0% UV:0.0%
[libx264 @ 0x5623fb5e5b40] kb/s:6122.98
[aac @ 0x5623fb5a6400] Qavg: 2472.848
[AVIOContext @ 0x5623fb5a8040] Statistics: 45066761 bytes read, 2 seeks
[AVIOContext @ 0x5623fb5a4740] Statistics: 111578 bytes read, 0 seeks
